<?xml version="1.0" encoding="UTF-8"?>
<svg xmlns="http://www.w3.org/2000/svg" xmlns:xlink="http://www.w3.org/1999/xlink" width="105px" height="33px" viewBox="0 0 106 33" version="1.1">
<g id="surface1">
<path style=" stroke:none;fill-rule:nonzero;fill:rgb(1.960784%,7.058824%,20%);fill-opacity:1;" d="M 32.488281 7.34375 C 35.339844 7.34375 38.191406 7.34375 41.132812 7.34375 C 41.636719 8.933594 42.140625 10.515625 42.601562 12.113281 C 42.695312 12.4375 42.789062 12.761719 42.882812 13.085938 C 42.921875 13.222656 42.960938 13.359375 43 13.503906 C 43.070312 13.800781 43.070312 13.800781 43.210938 13.921875 C 43.234375 13.84375 43.253906 13.765625 43.28125 13.683594 C 43.496094 12.9375 43.714844 12.191406 43.929688 11.449219 C 44.042969 11.066406 44.15625 10.679688 44.265625 10.296875 C 44.375 9.929688 44.480469 9.558594 44.589844 9.1875 C 44.652344 8.980469 44.710938 8.769531 44.773438 8.558594 C 44.828125 8.367188 44.828125 8.367188 44.886719 8.171875 C 44.917969 8.0625 44.953125 7.949219 44.984375 7.832031 C 45.070312 7.566406 45.070312 7.566406 45.179688 7.34375 C 46.984375 7.34375 48.789062 7.34375 50.648438 7.34375 C 50.277344 8.824219 50.277344 8.824219 50.117188 9.332031 C 50.078125 9.449219 50.042969 9.566406 50.003906 9.683594 C 49.964844 9.804688 49.925781 9.929688 49.886719 10.054688 C 49.820312 10.257812 49.757812 10.460938 49.691406 10.664062 C 49.625 10.878906 49.554688 11.09375 49.484375 11.3125 C 49.265625 12.003906 49.042969 12.695312 48.824219 13.390625 C 48.773438 13.550781 48.722656 13.710938 48.671875 13.871094 C 48.128906 15.574219 47.597656 17.277344 47.066406 18.984375 C 46.429688 21.027344 45.792969 23.070312 45.148438 25.109375 C 45.082031 25.320312 45.015625 25.53125 44.949219 25.742188 C 44.859375 26.023438 44.769531 26.304688 44.679688 26.589844 C 44.65625 26.671875 44.628906 26.753906 44.601562 26.839844 C 44.425781 27.394531 44.425781 27.394531 44.304688 27.519531 C 43.996094 27.527344 43.691406 27.53125 43.382812 27.527344 C 43.292969 27.527344 43.199219 27.527344 43.105469 27.527344 C 42.808594 27.527344 42.511719 27.527344 42.21875 27.523438 C 42.019531 27.523438 41.820312 27.523438 41.617188 27.523438 C 41.128906 27.523438 40.636719 27.519531 40.148438 27.519531 C 39.824219 26.382812 39.503906 25.246094 39.183594 24.113281 C 39.160156 24.027344 39.136719 23.945312 39.109375 23.859375 C 38.359375 21.207031 37.609375 18.550781 36.863281 15.898438 C 36.683594 16.167969 36.59375 16.347656 36.492188 16.648438 C 36.464844 16.734375 36.4375 16.820312 36.40625 16.910156 C 36.375 17.003906 36.34375 17.097656 36.3125 17.195312 C 36.28125 17.292969 36.25 17.394531 36.214844 17.496094 C 36.105469 17.828125 35.996094 18.160156 35.890625 18.492188 C 35.8125 18.722656 35.734375 18.957031 35.65625 19.191406 C 35.453125 19.8125 35.25 20.433594 35.046875 21.054688 C 34.886719 21.546875 34.722656 22.039062 34.5625 22.53125 C 33.902344 24.539062 33.242188 26.550781 32.59375 28.5625 C 32.558594 28.671875 32.523438 28.78125 32.484375 28.890625 C 32.320312 29.402344 32.15625 29.914062 31.992188 30.425781 C 31.933594 30.605469 31.875 30.785156 31.816406 30.96875 C 31.789062 31.046875 31.765625 31.125 31.738281 31.207031 C 31.542969 31.820312 31.308594 32.398438 31.066406 33 C 28.972656 33 26.878906 33 24.722656 33 C 24.800781 32.445312 24.886719 31.996094 25.050781 31.472656 C 25.074219 31.402344 25.097656 31.328125 25.121094 31.253906 C 25.195312 31.011719 25.269531 30.773438 25.34375 30.53125 C 25.398438 30.359375 25.453125 30.183594 25.503906 30.011719 C 25.621094 29.636719 25.738281 29.265625 25.851562 28.894531 C 26.132812 27.992188 26.414062 27.089844 26.691406 26.183594 C 26.789062 25.871094 26.886719 25.554688 26.984375 25.242188 C 27.625 23.164062 28.257812 21.085938 28.890625 19.007812 C 29.03125 18.539062 29.171875 18.074219 29.316406 17.605469 C 29.371094 17.421875 29.429688 17.238281 29.484375 17.050781 C 29.511719 16.960938 29.539062 16.871094 29.566406 16.777344 C 29.652344 16.503906 29.734375 16.230469 29.816406 15.960938 C 30.332031 14.261719 30.847656 12.5625 31.367188 10.867188 C 31.457031 10.566406 31.550781 10.269531 31.640625 9.972656 C 31.761719 9.566406 31.886719 9.160156 32.011719 8.757812 C 32.046875 8.636719 32.082031 8.519531 32.121094 8.398438 C 32.152344 8.289062 32.1875 8.183594 32.21875 8.070312 C 32.25 7.976562 32.277344 7.882812 32.304688 7.789062 C 32.378906 7.566406 32.378906 7.566406 32.488281 7.34375 Z M 32.488281 7.34375 "/>
<path style=" stroke:none;fill-rule:nonzero;fill:rgb(1.960784%,7.058824%,20%);fill-opacity:1;" d="M 54.257812 0 C 71.332031 0 88.40625 0 106 0 C 105.726562 2.199219 105.015625 4.320312 104.46875 6.46875 C 87.320312 6.46875 70.175781 6.46875 52.507812 6.46875 C 52.628906 5.480469 52.628906 5.480469 52.769531 5.003906 C 52.796875 4.894531 52.828125 4.789062 52.859375 4.679688 C 52.910156 4.511719 52.910156 4.511719 52.957031 4.339844 C 52.992188 4.222656 53.027344 4.101562 53.0625 3.980469 C 53.132812 3.734375 53.203125 3.488281 53.273438 3.242188 C 53.382812 2.863281 53.492188 2.484375 53.601562 2.105469 C 53.667969 1.863281 53.738281 1.625 53.808594 1.386719 C 53.839844 1.269531 53.871094 1.15625 53.90625 1.039062 C 53.9375 0.9375 53.964844 0.832031 53.996094 0.722656 C 54.039062 0.585938 54.039062 0.585938 54.078125 0.445312 C 54.148438 0.21875 54.148438 0.21875 54.257812 0 Z M 54.257812 0 "/>
<path style=" stroke:none;fill-rule:nonzero;fill:rgb(1.960784%,7.058824%,20%);fill-opacity:1;" d="M 85.980469 7.34375 C 87.257812 7.335938 88.53125 7.332031 89.808594 7.328125 C 90.398438 7.328125 90.992188 7.324219 91.582031 7.320312 C 92.15625 7.316406 92.730469 7.316406 93.300781 7.3125 C 93.519531 7.3125 93.734375 7.3125 93.953125 7.3125 C 95.625 7.296875 97.222656 7.324219 98.539062 8.496094 C 98.621094 8.585938 98.699219 8.675781 98.78125 8.769531 C 98.855469 8.851562 98.929688 8.929688 99.003906 9.011719 C 99.730469 10.066406 99.863281 11.15625 99.640625 12.398438 C 99.40625 13.609375 99.097656 14.765625 98.710938 15.9375 C 98.652344 16.128906 98.589844 16.316406 98.527344 16.507812 C 98.359375 17.027344 98.1875 17.550781 98.019531 18.074219 C 97.855469 18.566406 97.695312 19.058594 97.535156 19.550781 C 97.195312 20.597656 96.855469 21.640625 96.511719 22.6875 C 96.203125 23.625 95.894531 24.566406 95.59375 25.511719 C 95.570312 25.585938 95.546875 25.660156 95.523438 25.738281 C 95.417969 26.066406 95.3125 26.394531 95.210938 26.722656 C 95.160156 26.882812 95.160156 26.882812 95.109375 27.046875 C 95.066406 27.183594 95.066406 27.183594 95.023438 27.320312 C 94.953125 27.519531 94.953125 27.519531 94.84375 27.628906 C 94.507812 27.636719 94.175781 27.640625 93.839844 27.640625 C 93.734375 27.640625 93.632812 27.640625 93.523438 27.640625 C 93.171875 27.640625 92.824219 27.640625 92.472656 27.636719 C 92.292969 27.636719 92.292969 27.636719 92.113281 27.636719 C 91.480469 27.632812 90.847656 27.628906 90.214844 27.625 C 89.691406 27.621094 89.167969 27.621094 88.644531 27.621094 C 88.011719 27.621094 87.382812 27.617188 86.75 27.613281 C 86.511719 27.609375 86.269531 27.609375 86.03125 27.613281 C 85.691406 27.613281 85.355469 27.609375 85.015625 27.605469 C 84.917969 27.605469 84.820312 27.605469 84.71875 27.609375 C 83.65625 27.585938 82.945312 26.953125 82.230469 26.210938 C 81.429688 25.238281 81.398438 24.121094 81.496094 22.914062 C 81.773438 20.902344 82.445312 18.933594 83.027344 16.992188 C 83.066406 16.863281 83.105469 16.730469 83.144531 16.597656 C 83.183594 16.46875 83.21875 16.34375 83.257812 16.214844 C 83.289062 16.105469 83.324219 15.996094 83.355469 15.882812 C 83.636719 15.070312 84.019531 14.453125 84.765625 14.015625 C 85.3125 13.796875 85.886719 13.800781 86.472656 13.796875 C 86.550781 13.792969 86.628906 13.792969 86.710938 13.792969 C 86.882812 13.792969 87.054688 13.789062 87.226562 13.789062 C 87.496094 13.785156 87.765625 13.785156 88.039062 13.78125 C 88.808594 13.773438 89.578125 13.765625 90.347656 13.761719 C 90.820312 13.757812 91.289062 13.753906 91.761719 13.75 C 91.941406 13.746094 92.121094 13.746094 92.300781 13.746094 C 92.550781 13.742188 92.800781 13.742188 93.054688 13.738281 C 93.195312 13.738281 93.335938 13.734375 93.484375 13.734375 C 93.839844 13.707031 94.085938 13.636719 94.40625 13.484375 C 94.40625 13.304688 94.40625 13.125 94.40625 12.9375 C 93.882812 12.730469 93.414062 12.683594 92.859375 12.683594 C 92.773438 12.679688 92.6875 12.679688 92.597656 12.679688 C 92.3125 12.675781 92.03125 12.675781 91.746094 12.671875 C 91.546875 12.671875 91.351562 12.667969 91.152344 12.664062 C 90.632812 12.660156 90.113281 12.65625 89.59375 12.652344 C 89.066406 12.648438 88.535156 12.640625 88.003906 12.636719 C 86.964844 12.625 85.925781 12.617188 84.886719 12.609375 C 84.953125 11.917969 85.0625 11.261719 85.222656 10.589844 C 85.246094 10.496094 85.265625 10.402344 85.289062 10.304688 C 85.355469 10.011719 85.425781 9.714844 85.496094 9.421875 C 85.542969 9.21875 85.589844 9.019531 85.636719 8.816406 C 85.75 8.328125 85.867188 7.835938 85.980469 7.34375 Z M 87.738281 19.761719 C 87.363281 20.265625 87.148438 20.695312 87.183594 21.332031 C 87.265625 21.839844 87.453125 22.125 87.839844 22.476562 C 88.519531 22.789062 89.070312 22.847656 89.808594 22.824219 C 89.90625 22.824219 90 22.820312 90.097656 22.820312 C 90.332031 22.816406 90.5625 22.808594 90.792969 22.804688 C 90.933594 22.355469 91.074219 21.910156 91.214844 21.464844 C 91.261719 21.3125 91.3125 21.160156 91.359375 21.007812 C 91.425781 20.789062 91.496094 20.570312 91.5625 20.351562 C 91.605469 20.222656 91.644531 20.089844 91.6875 19.953125 C 91.792969 19.628906 91.792969 19.628906 91.777344 19.296875 C 91.363281 19.265625 90.949219 19.242188 90.535156 19.21875 C 90.359375 19.207031 90.359375 19.207031 90.183594 19.195312 C 89.289062 19.148438 88.46875 19.199219 87.738281 19.761719 Z M 87.738281 19.761719 "/>
<path style=" stroke:none;fill-rule:nonzero;fill:rgb(1.960784%,7.058824%,20%);fill-opacity:1;" d="M 52.179688 7.34375 C 53.457031 7.335938 54.734375 7.332031 56.011719 7.328125 C 56.605469 7.328125 57.195312 7.324219 57.789062 7.320312 C 58.363281 7.316406 58.9375 7.316406 59.507812 7.3125 C 59.726562 7.3125 59.945312 7.3125 60.164062 7.3125 C 61.898438 7.296875 63.574219 7.378906 64.910156 8.640625 C 65.699219 9.503906 65.964844 10.449219 65.960938 11.621094 C 65.925781 11.980469 65.863281 12.328125 65.792969 12.683594 C 65.773438 12.78125 65.753906 12.882812 65.734375 12.984375 C 65.503906 14.105469 65.160156 15.183594 64.800781 16.265625 C 64.730469 16.488281 64.65625 16.707031 64.585938 16.925781 C 64.433594 17.394531 64.28125 17.863281 64.128906 18.332031 C 63.917969 18.976562 63.707031 19.617188 63.5 20.261719 C 63.285156 20.925781 63.066406 21.589844 62.851562 22.253906 C 62.8125 22.378906 62.769531 22.503906 62.730469 22.632812 C 62.609375 22.996094 62.492188 23.359375 62.375 23.722656 C 62.339844 23.824219 62.308594 23.925781 62.273438 24.03125 C 61.878906 25.238281 61.457031 26.433594 61.039062 27.628906 C 59.628906 27.625 58.214844 27.617188 56.800781 27.609375 C 56.144531 27.601562 55.488281 27.601562 54.832031 27.597656 C 54.199219 27.597656 53.566406 27.59375 52.933594 27.585938 C 52.691406 27.585938 52.449219 27.585938 52.207031 27.585938 C 51.871094 27.585938 51.53125 27.582031 51.191406 27.578125 C 51.042969 27.578125 51.042969 27.578125 50.890625 27.578125 C 49.972656 27.566406 49.429688 27.222656 48.773438 26.574219 C 47.933594 25.6875 47.609375 24.960938 47.628906 23.734375 C 47.734375 21.574219 48.492188 19.453125 49.109375 17.394531 C 49.265625 16.863281 49.40625 16.332031 49.550781 15.796875 C 49.785156 15.101562 50.191406 14.472656 50.820312 14.082031 C 51.433594 13.824219 52.007812 13.800781 52.671875 13.796875 C 52.75 13.792969 52.828125 13.792969 52.910156 13.792969 C 53.082031 13.792969 53.253906 13.789062 53.421875 13.789062 C 53.695312 13.785156 53.964844 13.785156 54.234375 13.78125 C 55.003906 13.773438 55.777344 13.765625 56.546875 13.761719 C 57.015625 13.757812 57.488281 13.753906 57.960938 13.75 C 58.140625 13.746094 58.320312 13.746094 58.5 13.746094 C 58.75 13.742188 59 13.742188 59.25 13.738281 C 59.394531 13.738281 59.535156 13.734375 59.683594 13.734375 C 60.039062 13.707031 60.285156 13.636719 60.601562 13.484375 C 60.601562 13.304688 60.601562 13.125 60.601562 12.9375 C 60.082031 12.730469 59.609375 12.683594 59.058594 12.683594 C 58.972656 12.679688 58.886719 12.679688 58.796875 12.679688 C 58.511719 12.675781 58.226562 12.675781 57.945312 12.671875 C 57.746094 12.671875 57.546875 12.667969 57.351562 12.664062 C 56.832031 12.660156 56.3125 12.65625 55.792969 12.652344 C 55.261719 12.648438 54.734375 12.640625 54.203125 12.636719 C 53.164062 12.625 52.125 12.617188 51.085938 12.609375 C 51.140625 11.886719 51.25 11.195312 51.421875 10.492188 C 51.441406 10.402344 51.464844 10.3125 51.488281 10.21875 C 51.554688 9.933594 51.625 9.644531 51.695312 9.359375 C 51.742188 9.164062 51.789062 8.96875 51.835938 8.773438 C 51.949219 8.296875 52.0625 7.820312 52.179688 7.34375 Z M 53.9375 19.761719 C 53.558594 20.265625 53.347656 20.695312 53.382812 21.332031 C 53.464844 21.839844 53.648438 22.125 54.039062 22.476562 C 54.71875 22.789062 55.265625 22.847656 56.007812 22.824219 C 56.101562 22.824219 56.199219 22.820312 56.296875 22.820312 C 56.527344 22.816406 56.761719 22.808594 56.992188 22.804688 C 57.132812 22.355469 57.273438 21.910156 57.414062 21.464844 C 57.460938 21.3125 57.507812 21.160156 57.558594 21.007812 C 57.625 20.789062 57.695312 20.570312 57.761719 20.351562 C 57.804688 20.222656 57.84375 20.089844 57.886719 19.953125 C 57.992188 19.628906 57.992188 19.628906 57.976562 19.296875 C 57.5625 19.265625 57.148438 19.242188 56.734375 19.21875 C 56.558594 19.207031 56.558594 19.207031 56.382812 19.195312 C 55.484375 19.148438 54.667969 19.199219 53.9375 19.761719 Z M 53.9375 19.761719 "/>
<path style=" stroke:none;fill-rule:nonzero;fill:rgb(1.960784%,7.058824%,20%);fill-opacity:1;" d="M 72.835938 7.332031 C 72.9375 7.332031 73.039062 7.332031 73.144531 7.332031 C 73.257812 7.332031 73.371094 7.332031 73.484375 7.332031 C 73.660156 7.332031 73.660156 7.332031 73.84375 7.332031 C 74.234375 7.332031 74.625 7.332031 75.015625 7.335938 C 75.289062 7.335938 75.558594 7.335938 75.832031 7.335938 C 76.546875 7.335938 77.257812 7.335938 77.972656 7.339844 C 78.703125 7.339844 79.429688 7.339844 80.160156 7.339844 C 81.589844 7.339844 83.019531 7.34375 84.449219 7.34375 C 84.339844 8.277344 84.339844 8.277344 84.238281 8.722656 C 84.210938 8.851562 84.210938 8.851562 84.179688 8.984375 C 84.160156 9.074219 84.140625 9.167969 84.117188 9.261719 C 84.085938 9.402344 84.085938 9.402344 84.054688 9.550781 C 84.007812 9.75 83.964844 9.949219 83.917969 10.148438 C 83.847656 10.457031 83.777344 10.765625 83.710938 11.074219 C 83.667969 11.269531 83.621094 11.464844 83.578125 11.65625 C 83.558594 11.75 83.535156 11.84375 83.515625 11.9375 C 83.367188 12.582031 83.367188 12.582031 83.246094 12.828125 C 83.082031 12.828125 83.082031 12.828125 82.914062 12.828125 C 81.882812 12.832031 80.851562 12.839844 79.820312 12.847656 C 79.289062 12.851562 78.761719 12.855469 78.230469 12.855469 C 77.71875 12.859375 77.207031 12.863281 76.691406 12.867188 C 76.496094 12.871094 76.304688 12.871094 76.109375 12.871094 C 75.832031 12.871094 75.558594 12.875 75.285156 12.878906 C 75.207031 12.875 75.125 12.875 75.042969 12.875 C 74.441406 12.886719 74.105469 13.042969 73.621094 13.375 C 73.464844 13.667969 73.46875 13.925781 73.511719 14.253906 C 74.03125 15.25 75.609375 15.546875 76.597656 15.90625 C 78.132812 16.464844 79.609375 17.015625 80.402344 18.527344 C 81.074219 20.546875 79.984375 22.871094 79.105469 24.648438 C 78.828125 25.175781 78.488281 25.636719 78.105469 26.09375 C 78.046875 26.167969 77.988281 26.242188 77.929688 26.320312 C 77.4375 26.929688 76.902344 27.324219 76.136719 27.519531 C 75.6875 27.550781 75.238281 27.546875 74.785156 27.542969 C 74.582031 27.542969 74.582031 27.542969 74.375 27.542969 C 74.003906 27.542969 73.632812 27.542969 73.265625 27.539062 C 72.875 27.539062 72.488281 27.539062 72.101562 27.539062 C 71.367188 27.539062 70.632812 27.535156 69.902344 27.535156 C 69.066406 27.53125 68.230469 27.53125 67.394531 27.53125 C 65.679688 27.527344 63.960938 27.523438 62.242188 27.519531 C 62.460938 26.769531 62.675781 26.023438 62.890625 25.277344 C 62.964844 25.019531 63.039062 24.765625 63.113281 24.511719 C 63.21875 24.148438 63.324219 23.78125 63.429688 23.417969 C 63.460938 23.304688 63.496094 23.1875 63.527344 23.070312 C 63.558594 22.964844 63.589844 22.859375 63.621094 22.75 C 63.648438 22.65625 63.675781 22.566406 63.703125 22.46875 C 63.773438 22.253906 63.773438 22.253906 63.882812 22.144531 C 64.089844 22.132812 64.300781 22.128906 64.507812 22.128906 C 64.640625 22.128906 64.773438 22.125 64.910156 22.125 C 64.984375 22.125 65.054688 22.125 65.128906 22.125 C 65.351562 22.121094 65.578125 22.121094 65.800781 22.117188 C 66.441406 22.113281 67.078125 22.105469 67.71875 22.101562 C 68.109375 22.101562 68.496094 22.097656 68.886719 22.089844 C 69.109375 22.089844 69.328125 22.089844 69.546875 22.085938 C 70.535156 22.078125 70.535156 22.078125 71.433594 21.707031 C 71.679688 21.40625 71.679688 21.40625 71.640625 21.105469 C 71.515625 20.757812 71.382812 20.664062 71.078125 20.460938 C 70.929688 20.363281 70.929688 20.363281 70.777344 20.261719 C 70.433594 20.054688 70.082031 19.871094 69.722656 19.6875 C 68.558594 19.070312 67.777344 18.125 67.257812 16.914062 C 67.136719 16.433594 67.132812 15.980469 67.140625 15.484375 C 67.140625 15.386719 67.140625 15.285156 67.140625 15.179688 C 67.171875 12.9375 67.398438 10.703125 68.996094 8.996094 C 70.011719 8.066406 71.441406 7.332031 72.835938 7.332031 Z M 72.835938 7.332031 "/>
<path style=" stroke:none;fill-rule:nonzero;fill:rgb(1.960784%,7.058824%,20%);fill-opacity:1;" d="M 7.4375 0.546875 C 7.742188 0.820312 7.921875 1.117188 8.121094 1.472656 C 8.1875 1.59375 8.257812 1.714844 8.328125 1.839844 C 8.402344 1.972656 8.476562 2.109375 8.554688 2.242188 C 8.632812 2.378906 8.710938 2.515625 8.789062 2.65625 C 8.949219 2.941406 9.113281 3.230469 9.273438 3.515625 C 9.613281 4.117188 9.953125 4.71875 10.296875 5.316406 C 10.371094 5.445312 10.441406 5.574219 10.515625 5.703125 C 11.019531 6.589844 11.53125 7.472656 12.046875 8.351562 C 12.640625 9.367188 13.214844 10.390625 13.789062 11.417969 C 14.179688 12.121094 14.578125 12.820312 14.988281 13.511719 C 15.515625 14.40625 16.027344 15.308594 16.539062 16.210938 C 16.609375 16.335938 16.683594 16.460938 16.753906 16.585938 C 16.824219 16.710938 16.894531 16.832031 16.964844 16.960938 C 17.105469 17.203125 17.25 17.441406 17.402344 17.679688 C 17.472656 17.789062 17.542969 17.902344 17.617188 18.019531 C 17.683594 18.117188 17.746094 18.214844 17.8125 18.316406 C 18.066406 18.957031 17.800781 19.683594 17.609375 20.320312 C 17.574219 20.429688 17.574219 20.429688 17.539062 20.546875 C 17.464844 20.789062 17.390625 21.035156 17.316406 21.28125 C 17.265625 21.449219 17.214844 21.621094 17.164062 21.792969 C 17.027344 22.238281 16.894531 22.6875 16.757812 23.132812 C 16.621094 23.589844 16.480469 24.046875 16.34375 24.503906 C 16.074219 25.398438 15.804688 26.292969 15.535156 27.1875 C 15.050781 26.980469 14.867188 26.65625 14.609375 26.214844 C 14.511719 26.054688 14.414062 25.894531 14.316406 25.734375 C 14.242188 25.605469 14.242188 25.605469 14.160156 25.476562 C 13.894531 25.039062 13.613281 24.609375 13.332031 24.179688 C 12.78125 23.335938 12.234375 22.484375 11.691406 21.632812 C 11.007812 20.558594 10.320312 19.488281 9.625 18.417969 C 9.390625 18.652344 9.339844 18.789062 9.230469 19.09375 C 9.199219 19.191406 9.164062 19.285156 9.128906 19.382812 C 9.09375 19.488281 9.058594 19.589844 9.023438 19.699219 C 8.984375 19.808594 8.945312 19.914062 8.90625 20.027344 C 8.828125 20.257812 8.746094 20.492188 8.664062 20.722656 C 8.457031 21.324219 8.246094 21.925781 8.035156 22.523438 C 7.992188 22.644531 7.949219 22.761719 7.90625 22.882812 C 7.410156 24.292969 6.882812 25.6875 6.34375 27.078125 C 4.25 27.078125 2.15625 27.078125 0 27.078125 C 0.0742188 26.496094 0.144531 26.023438 0.300781 25.472656 C 0.320312 25.402344 0.339844 25.335938 0.359375 25.265625 C 0.425781 25.039062 0.488281 24.808594 0.554688 24.582031 C 0.601562 24.417969 0.648438 24.25 0.695312 24.085938 C 0.800781 23.726562 0.902344 23.363281 1.003906 23.003906 C 1.171875 22.425781 1.335938 21.84375 1.503906 21.261719 C 1.5625 21.058594 1.621094 20.855469 1.675781 20.648438 C 1.707031 20.546875 1.734375 20.445312 1.765625 20.335938 C 1.859375 20.015625 1.949219 19.695312 2.042969 19.375 C 2.738281 16.925781 3.429688 14.476562 4.121094 12.023438 C 4.328125 11.292969 4.535156 10.558594 4.742188 9.828125 C 4.808594 9.589844 4.875 9.355469 4.941406 9.121094 C 5.070312 8.660156 5.203125 8.199219 5.332031 7.742188 C 5.628906 6.695312 5.921875 5.648438 6.214844 4.601562 C 6.347656 4.128906 6.480469 3.652344 6.613281 3.179688 C 6.675781 2.953125 6.742188 2.726562 6.804688 2.503906 C 6.890625 2.191406 6.976562 1.882812 7.0625 1.574219 C 7.089844 1.484375 7.113281 1.390625 7.140625 1.296875 C 7.316406 0.671875 7.316406 0.671875 7.4375 0.546875 Z M 7.4375 0.546875 "/>
<path style=" stroke:none;fill-rule:nonzero;fill:rgb(1.960784%,7.058824%,20%);fill-opacity:1;" d="M 21.550781 11.730469 C 21.949219 11.863281 21.980469 11.960938 22.1875 12.320312 C 22.246094 12.421875 22.304688 12.519531 22.363281 12.625 C 22.425781 12.730469 22.484375 12.839844 22.546875 12.949219 C 22.675781 13.171875 22.804688 13.394531 22.933594 13.617188 C 23.027344 13.78125 23.027344 13.78125 23.125 13.949219 C 23.308594 14.269531 23.5 14.582031 23.695312 14.894531 C 25.3125 17.5 26.902344 20.902344 26.292969 24.050781 C 25.929688 25.160156 25.207031 25.996094 24.175781 26.53125 C 23.40625 26.859375 22.679688 27.09375 21.839844 27.09375 C 21.726562 27.09375 21.613281 27.09375 21.496094 27.09375 C 21.375 27.089844 21.253906 27.089844 21.128906 27.089844 C 21.003906 27.089844 20.875 27.089844 20.746094 27.089844 C 20.347656 27.089844 19.945312 27.089844 19.546875 27.085938 C 19.273438 27.085938 19.003906 27.085938 18.730469 27.085938 C 18.066406 27.082031 17.402344 27.082031 16.738281 27.078125 C 16.910156 26.21875 17.167969 25.394531 17.441406 24.558594 C 17.492188 24.40625 17.539062 24.257812 17.589844 24.105469 C 17.691406 23.785156 17.796875 23.464844 17.902344 23.144531 C 18.0625 22.644531 18.226562 22.140625 18.390625 21.636719 C 18.417969 21.554688 18.445312 21.472656 18.472656 21.382812 C 18.527344 21.214844 18.582031 21.046875 18.636719 20.875 C 18.71875 20.621094 18.800781 20.367188 18.886719 20.109375 C 19.382812 18.582031 19.871094 17.050781 20.359375 15.519531 C 20.394531 15.410156 20.433594 15.296875 20.46875 15.179688 C 20.835938 14.03125 21.199219 12.882812 21.550781 11.730469 Z M 21.550781 11.730469 "/>
<path style=" stroke:none;fill-rule:nonzero;fill:rgb(99.607843%,0%,0%);fill-opacity:1;" d="M 35.179688 -0.0117188 C 35.355469 -0.0117188 35.53125 -0.0117188 35.707031 -0.0117188 C 35.796875 -0.0117188 35.890625 -0.0117188 35.984375 -0.0117188 C 36.28125 -0.0078125 36.578125 -0.0078125 36.871094 -0.0078125 C 37.070312 -0.0078125 37.269531 -0.00390625 37.472656 -0.00390625 C 37.960938 -0.00390625 38.453125 -0.00390625 38.941406 0 C 39.441406 1.523438 39.917969 3.050781 40.367188 4.589844 C 40.386719 4.664062 40.410156 4.742188 40.433594 4.816406 C 40.496094 5.03125 40.554688 5.246094 40.617188 5.460938 C 40.652344 5.582031 40.691406 5.707031 40.726562 5.832031 C 40.804688 6.140625 40.804688 6.140625 40.804688 6.46875 C 38.167969 6.46875 35.53125 6.46875 32.816406 6.46875 C 33.0625 5.359375 33.0625 5.359375 33.210938 4.878906 C 33.257812 4.71875 33.257812 4.71875 33.308594 4.554688 C 33.34375 4.441406 33.378906 4.328125 33.414062 4.214844 C 33.464844 4.039062 33.464844 4.039062 33.519531 3.859375 C 33.597656 3.609375 33.671875 3.363281 33.746094 3.117188 C 33.863281 2.738281 33.980469 2.359375 34.09375 1.980469 C 34.167969 1.742188 34.242188 1.5 34.316406 1.261719 C 34.351562 1.148438 34.382812 1.03125 34.421875 0.914062 C 34.453125 0.8125 34.484375 0.707031 34.515625 0.597656 C 34.546875 0.507812 34.574219 0.414062 34.601562 0.320312 C 34.730469 -0.046875 34.753906 0 35.179688 -0.0117188 Z M 35.179688 -0.0117188 "/>
<path style=" stroke:none;fill-rule:nonzero;fill:rgb(99.607843%,0%,0%);fill-opacity:1;" d="M 47.257812 0 C 49.132812 0 51.011719 0 52.945312 0 C 52.699219 1.109375 52.699219 1.109375 52.554688 1.578125 C 52.519531 1.683594 52.488281 1.789062 52.453125 1.894531 C 52.421875 2.003906 52.386719 2.113281 52.351562 2.226562 C 52.3125 2.339844 52.277344 2.457031 52.242188 2.574219 C 52.167969 2.816406 52.089844 3.054688 52.015625 3.296875 C 51.898438 3.667969 51.785156 4.039062 51.667969 4.40625 C 51.59375 4.640625 51.519531 4.875 51.449219 5.109375 C 51.394531 5.277344 51.394531 5.277344 51.34375 5.449219 C 51.308594 5.550781 51.277344 5.652344 51.246094 5.757812 C 51.21875 5.847656 51.1875 5.9375 51.160156 6.03125 C 51.085938 6.25 51.085938 6.25 50.976562 6.46875 C 49.171875 6.46875 47.367188 6.46875 45.507812 6.46875 C 45.578125 5.972656 45.644531 5.558594 45.777344 5.089844 C 45.8125 4.976562 45.84375 4.863281 45.878906 4.746094 C 45.914062 4.625 45.949219 4.503906 45.984375 4.378906 C 46.023438 4.253906 46.058594 4.128906 46.09375 4 C 46.210938 3.601562 46.328125 3.203125 46.445312 2.800781 C 46.523438 2.53125 46.601562 2.261719 46.679688 1.988281 C 46.871094 1.324219 47.0625 0.664062 47.257812 0 Z M 47.257812 0 "/>
<path style=" stroke:none;fill-rule:nonzero;fill:rgb(99.607843%,0%,0%);fill-opacity:1;" d="M 21.769531 0.328125 C 22.453125 0.328125 23.140625 0.328125 23.847656 0.328125 C 23.714844 0.917969 23.59375 1.460938 23.414062 2.027344 C 23.347656 2.226562 23.347656 2.226562 23.285156 2.429688 C 23.238281 2.574219 23.191406 2.71875 23.144531 2.859375 C 23.097656 3.015625 23.046875 3.167969 22.996094 3.324219 C 22.863281 3.738281 22.730469 4.15625 22.597656 4.570312 C 22.457031 5.007812 22.316406 5.445312 22.179688 5.878906 C 22.003906 6.425781 21.828125 6.972656 21.652344 7.519531 C 21.261719 8.742188 20.871094 9.964844 20.480469 11.191406 C 20.394531 11.464844 20.308594 11.742188 20.21875 12.015625 C 19.882812 13.078125 19.882812 13.078125 19.542969 14.136719 C 19.414062 14.550781 19.285156 14.960938 19.152344 15.371094 C 19.105469 15.523438 19.058594 15.671875 19.007812 15.824219 C 18.945312 16.03125 18.878906 16.234375 18.8125 16.441406 C 18.777344 16.554688 18.738281 16.671875 18.703125 16.789062 C 18.601562 17.082031 18.496094 17.367188 18.378906 17.652344 C 18.015625 17.308594 17.773438 16.925781 17.515625 16.5 C 17.46875 16.429688 17.417969 16.355469 17.371094 16.28125 C 17.167969 15.941406 17.042969 15.695312 17.109375 15.296875 C 17.152344 15.152344 17.152344 15.152344 17.195312 15.007812 C 17.226562 14.902344 17.257812 14.792969 17.292969 14.683594 C 17.324219 14.578125 17.359375 14.472656 17.394531 14.363281 C 17.421875 14.269531 17.449219 14.171875 17.480469 14.074219 C 17.566406 13.78125 17.65625 13.492188 17.746094 13.199219 C 17.78125 13.085938 17.816406 12.976562 17.851562 12.863281 C 17.964844 12.496094 18.078125 12.125 18.191406 11.757812 C 18.273438 11.496094 18.355469 11.238281 18.433594 10.976562 C 18.566406 10.558594 18.695312 10.136719 18.824219 9.71875 C 19.15625 8.640625 19.492188 7.5625 19.824219 6.480469 C 19.988281 5.945312 20.15625 5.40625 20.320312 4.871094 C 20.457031 4.429688 20.59375 3.988281 20.730469 3.546875 C 20.855469 3.128906 20.984375 2.710938 21.117188 2.292969 C 21.164062 2.140625 21.210938 1.984375 21.257812 1.828125 C 21.324219 1.617188 21.390625 1.40625 21.457031 1.191406 C 21.492188 1.074219 21.53125 0.953125 21.566406 0.828125 C 21.660156 0.546875 21.660156 0.546875 21.769531 0.328125 Z M 21.769531 0.328125 "/>
<path style=" stroke:none;fill-rule:nonzero;fill:rgb(99.607843%,0%,0%);fill-opacity:1;" d="M 19.128906 0.316406 C 19.257812 0.316406 19.257812 0.316406 19.390625 0.316406 C 19.53125 0.320312 19.53125 0.320312 19.671875 0.320312 C 19.769531 0.320312 19.871094 0.320312 19.972656 0.320312 C 20.070312 0.324219 20.167969 0.324219 20.269531 0.324219 C 20.515625 0.324219 20.757812 0.328125 21.003906 0.328125 C 20.785156 1.25 20.523438 2.152344 20.230469 3.050781 C 20.164062 3.257812 20.097656 3.460938 20.03125 3.664062 C 19.960938 3.878906 19.890625 4.097656 19.820312 4.3125 C 19.574219 5.066406 19.332031 5.824219 19.085938 6.582031 C 19.050781 6.695312 19.050781 6.695312 19.011719 6.816406 C 18.472656 8.484375 17.945312 10.152344 17.421875 11.828125 C 17.378906 11.957031 17.339844 12.085938 17.296875 12.21875 C 17.074219 12.933594 16.851562 13.648438 16.628906 14.363281 C 16.554688 14.363281 16.484375 14.363281 16.410156 14.363281 C 16.21875 14.050781 16.039062 13.738281 15.855469 13.421875 C 15.800781 13.335938 15.75 13.246094 15.695312 13.15625 C 15.644531 13.070312 15.59375 12.984375 15.542969 12.894531 C 15.496094 12.816406 15.449219 12.738281 15.402344 12.65625 C 15.210938 12.070312 15.46875 11.429688 15.640625 10.863281 C 15.675781 10.753906 15.675781 10.753906 15.707031 10.644531 C 15.78125 10.40625 15.855469 10.171875 15.925781 9.933594 C 15.976562 9.765625 16.03125 9.597656 16.082031 9.429688 C 16.214844 8.988281 16.351562 8.542969 16.488281 8.101562 C 16.703125 7.402344 16.917969 6.703125 17.132812 6.007812 C 17.210938 5.75 17.289062 5.492188 17.371094 5.234375 C 17.625 4.40625 17.878906 3.574219 18.125 2.742188 C 18.148438 2.664062 18.171875 2.585938 18.195312 2.507812 C 18.304688 2.140625 18.410156 1.773438 18.519531 1.410156 C 18.558594 1.28125 18.59375 1.15625 18.632812 1.023438 C 18.683594 0.859375 18.683594 0.859375 18.734375 0.6875 C 18.851562 0.332031 18.851562 0.332031 19.128906 0.316406 Z M 19.128906 0.316406 "/>
<path style=" stroke:none;fill-rule:nonzero;fill:rgb(99.607843%,0%,0%);fill-opacity:1;" d="M 15.972656 0.328125 C 16.65625 0.328125 17.34375 0.328125 18.050781 0.328125 C 17.914062 0.9375 17.785156 1.5 17.59375 2.089844 C 17.574219 2.160156 17.550781 2.230469 17.527344 2.304688 C 17.453125 2.535156 17.378906 2.761719 17.304688 2.992188 C 17.253906 3.15625 17.203125 3.320312 17.148438 3.484375 C 17.011719 3.910156 16.875 4.339844 16.738281 4.769531 C 16.601562 5.199219 16.464844 5.628906 16.328125 6.054688 C 16.167969 6.550781 16.007812 7.046875 15.851562 7.542969 C 15.488281 8.683594 15.125 9.824219 14.769531 10.964844 C 14.230469 10.785156 14.074219 10.285156 13.8125 9.804688 C 13.753906 9.707031 13.695312 9.613281 13.636719 9.511719 C 13.585938 9.417969 13.53125 9.320312 13.476562 9.222656 C 13.429688 9.136719 13.378906 9.050781 13.328125 8.960938 C 13.046875 8.050781 13.574219 7.039062 13.875 6.179688 C 13.929688 6.023438 13.980469 5.867188 14.035156 5.714844 C 14.144531 5.390625 14.257812 5.066406 14.371094 4.746094 C 14.515625 4.332031 14.65625 3.917969 14.796875 3.503906 C 14.910156 3.183594 15.019531 2.863281 15.128906 2.542969 C 15.179688 2.390625 15.234375 2.238281 15.285156 2.085938 C 15.359375 1.875 15.433594 1.660156 15.507812 1.449219 C 15.570312 1.265625 15.570312 1.265625 15.636719 1.082031 C 15.753906 0.765625 15.753906 0.765625 15.972656 0.328125 Z M 15.972656 0.328125 "/>
<path style=" stroke:none;fill-rule:nonzero;fill:rgb(1.960784%,7.058824%,20%);fill-opacity:1;" d="M 85.761719 29.054688 C 86.210938 29.042969 86.210938 29.042969 86.671875 29.03125 C 86.8125 29.027344 86.8125 29.027344 86.957031 29.023438 C 87.03125 29.023438 87.105469 29.023438 87.183594 29.019531 C 87.296875 29.019531 87.296875 29.019531 87.414062 29.015625 C 87.691406 29.066406 87.785156 29.160156 87.949219 29.382812 C 87.992188 29.859375 88 30.074219 87.730469 30.476562 C 87.769531 30.5625 87.804688 30.648438 87.839844 30.738281 C 87.949219 31.027344 87.949219 31.027344 87.890625 31.3125 C 87.6875 31.648438 87.542969 31.738281 87.183594 31.902344 C 86.84375 31.941406 86.507812 31.933594 86.167969 31.925781 C 85.851562 31.917969 85.539062 31.910156 85.214844 31.902344 C 85.394531 30.964844 85.578125 30.023438 85.761719 29.054688 Z M 86.417969 29.601562 C 86.382812 29.78125 86.347656 29.964844 86.308594 30.148438 C 86.5625 30.148438 86.816406 30.148438 87.074219 30.148438 C 87.148438 30.003906 87.21875 29.859375 87.292969 29.710938 C 87.164062 29.554688 87.164062 29.554688 86.796875 29.59375 C 86.609375 29.597656 86.609375 29.597656 86.417969 29.601562 Z M 86.199219 30.699219 C 86.164062 30.914062 86.128906 31.132812 86.089844 31.355469 C 86.53125 31.375 86.53125 31.375 86.964844 31.355469 C 87.039062 31.28125 87.109375 31.210938 87.183594 31.136719 C 87.183594 31.027344 87.183594 30.917969 87.183594 30.808594 C 86.859375 30.644531 86.554688 30.691406 86.199219 30.699219 Z M 86.199219 30.699219 "/>
<path style=" stroke:none;fill-rule:nonzero;fill:rgb(1.960784%,6.666667%,20%);fill-opacity:1;" d="M 46.601562 29.054688 C 46.851562 29.054688 47.105469 29.054688 47.367188 29.054688 C 47.546875 29.488281 47.726562 29.921875 47.914062 30.367188 C 47.984375 30.152344 48.058594 29.933594 48.132812 29.710938 C 48.242188 29.382812 48.242188 29.382812 48.351562 29.054688 C 48.566406 29.054688 48.785156 29.054688 49.007812 29.054688 C 48.828125 29.992188 48.644531 30.933594 48.460938 31.902344 C 48.207031 31.902344 47.953125 31.902344 47.695312 31.902344 C 47.515625 31.433594 47.332031 30.964844 47.148438 30.476562 C 47.070312 30.800781 47.070312 30.800781 46.992188 31.128906 C 46.832031 31.78125 46.832031 31.78125 46.710938 31.902344 C 46.492188 31.902344 46.277344 31.902344 46.054688 31.902344 C 46.234375 30.964844 46.414062 30.023438 46.601562 29.054688 Z M 46.601562 29.054688 "/>
<path style=" stroke:none;fill-rule:nonzero;fill:rgb(1.960784%,7.058824%,20%);fill-opacity:1;" d="M 91.449219 29.054688 C 91.714844 29.042969 91.980469 29.03125 92.242188 29.027344 C 92.355469 29.019531 92.355469 29.019531 92.46875 29.015625 C 92.847656 29.007812 93.050781 29.023438 93.355469 29.253906 C 93.679688 29.699219 93.695312 30.164062 93.640625 30.699219 C 93.460938 31.15625 93.25 31.476562 92.875 31.792969 C 92.476562 31.925781 92.117188 31.914062 91.703125 31.910156 C 91.628906 31.910156 91.550781 31.910156 91.472656 31.910156 C 91.28125 31.90625 91.09375 31.90625 90.902344 31.902344 C 90.949219 30.921875 91.199219 30 91.449219 29.054688 Z M 91.996094 29.601562 C 91.890625 30.179688 91.78125 30.757812 91.667969 31.355469 C 92.296875 31.417969 92.296875 31.417969 92.640625 31.144531 C 92.917969 30.742188 92.925781 30.515625 92.914062 30.039062 C 92.890625 29.796875 92.890625 29.796875 92.652344 29.601562 C 92.4375 29.601562 92.222656 29.601562 91.996094 29.601562 Z M 91.996094 29.601562 "/>
<path style=" stroke:none;fill-rule:nonzero;fill:rgb(1.960784%,7.058824%,20%);fill-opacity:1;" d="M 61.996094 29.011719 C 62.734375 29.019531 62.734375 29.019531 63.152344 29.265625 C 63.4375 29.785156 63.542969 30.253906 63.378906 30.832031 C 63.140625 31.363281 62.875 31.625 62.351562 31.902344 C 62.042969 31.953125 61.746094 31.945312 61.4375 31.929688 C 61.355469 31.929688 61.277344 31.925781 61.191406 31.925781 C 60.996094 31.921875 60.800781 31.910156 60.601562 31.902344 C 60.691406 31.449219 60.78125 30.996094 60.871094 30.539062 C 60.894531 30.410156 60.917969 30.28125 60.945312 30.148438 C 60.96875 30.023438 60.996094 29.898438 61.019531 29.773438 C 61.042969 29.660156 61.0625 29.542969 61.085938 29.425781 C 61.210938 28.910156 61.511719 29.023438 61.996094 29.011719 Z M 61.804688 29.601562 C 61.75 29.832031 61.695312 30.0625 61.640625 30.292969 C 61.613281 30.421875 61.582031 30.550781 61.550781 30.683594 C 61.464844 31.023438 61.464844 31.023438 61.476562 31.355469 C 61.78125 31.410156 61.78125 31.410156 62.132812 31.355469 C 62.460938 31.070312 62.644531 30.894531 62.722656 30.464844 C 62.734375 30.203125 62.734375 30.203125 62.679688 29.820312 C 62.472656 29.5625 62.472656 29.5625 62.121094 29.585938 C 62.015625 29.59375 61.914062 29.597656 61.804688 29.601562 Z M 61.804688 29.601562 "/>
<path style=" stroke:none;fill-rule:nonzero;fill:rgb(1.960784%,6.666667%,19.607843%);fill-opacity:1;" d="M 71.542969 29.054688 C 71.757812 29.054688 71.976562 29.054688 72.199219 29.054688 C 72.199219 29.304688 72.199219 29.558594 72.199219 29.820312 C 72.277344 29.738281 72.277344 29.738281 72.355469 29.652344 C 72.9375 29.078125 72.9375 29.078125 73.351562 29.003906 C 73.589844 29.003906 73.820312 29.019531 74.058594 29.054688 C 73.691406 29.417969 73.328125 29.785156 72.964844 30.148438 C 73.128906 30.621094 73.367188 31.035156 73.617188 31.464844 C 73.730469 31.683594 73.730469 31.683594 73.730469 31.902344 C 73.386719 31.972656 73.386719 31.972656 72.964844 31.902344 C 72.691406 31.566406 72.496094 31.199219 72.308594 30.808594 C 71.851562 31.109375 71.773438 31.367188 71.652344 31.902344 C 71.433594 31.902344 71.21875 31.902344 70.996094 31.902344 C 71.179688 29.777344 71.179688 29.777344 71.542969 29.054688 Z M 71.542969 29.054688 "/>
<path style=" stroke:none;fill-rule:nonzero;fill:rgb(1.960784%,7.058824%,20%);fill-opacity:1;" d="M 76.902344 29.054688 C 77.625 29.054688 78.347656 29.054688 79.089844 29.054688 C 79.054688 29.234375 79.019531 29.414062 78.980469 29.601562 C 78.277344 29.65625 78.277344 29.65625 77.558594 29.710938 C 77.523438 29.855469 77.484375 30 77.449219 30.148438 C 77.917969 30.148438 78.386719 30.148438 78.871094 30.148438 C 78.835938 30.332031 78.796875 30.511719 78.761719 30.699219 C 78.058594 30.75 78.058594 30.75 77.339844 30.808594 C 77.304688 30.953125 77.265625 31.097656 77.230469 31.246094 C 77.988281 31.300781 77.988281 31.300781 78.761719 31.355469 C 78.726562 31.535156 78.6875 31.71875 78.652344 31.902344 C 77.894531 31.902344 77.136719 31.902344 76.355469 31.902344 C 76.492188 30.9375 76.671875 30 76.902344 29.054688 Z M 76.902344 29.054688 "/>
<path style=" stroke:none;fill-rule:nonzero;fill:rgb(1.960784%,7.058824%,20%);fill-opacity:1;" d="M 68.699219 29.054688 C 68.949219 29.054688 69.203125 29.054688 69.464844 29.054688 C 69.355469 29.742188 69.246094 30.429688 69.136719 31.136719 C 69.625 31.253906 69.625 31.253906 69.902344 31.246094 C 70.046875 30.523438 70.191406 29.796875 70.339844 29.054688 C 70.589844 29.054688 70.84375 29.054688 71.105469 29.054688 C 70.835938 31.109375 70.835938 31.109375 70.339844 31.746094 C 69.832031 31.988281 69.355469 32 68.808594 31.902344 C 68.511719 31.675781 68.511719 31.675781 68.371094 31.355469 C 68.339844 30.800781 68.410156 30.3125 68.535156 29.773438 C 68.5625 29.636719 68.59375 29.5 68.625 29.363281 C 68.648438 29.261719 68.671875 29.15625 68.699219 29.054688 Z M 68.699219 29.054688 "/>
<path style=" stroke:none;fill-rule:nonzero;fill:rgb(1.960784%,6.666667%,20%);fill-opacity:1;" d="M 67.714844 29.054688 C 67.992188 29.25 67.992188 29.25 68.152344 29.492188 C 68.152344 29.636719 68.152344 29.78125 68.152344 29.929688 C 67.84375 29.949219 67.84375 29.949219 67.496094 29.929688 C 67.316406 29.765625 67.316406 29.765625 67.167969 29.601562 C 67.023438 29.601562 66.878906 29.601562 66.730469 29.601562 C 66.800781 29.9375 66.800781 29.9375 67.027344 30.039062 C 67.105469 30.070312 67.183594 30.101562 67.261719 30.136719 C 67.566406 30.28125 67.714844 30.371094 67.945312 30.628906 C 68.042969 30.917969 68.042969 30.917969 67.980469 31.257812 C 67.808594 31.601562 67.707031 31.710938 67.386719 31.902344 C 67.09375 31.949219 67.09375 31.949219 66.785156 31.945312 C 66.628906 31.945312 66.628906 31.945312 66.472656 31.949219 C 66.136719 31.898438 65.984375 31.8125 65.742188 31.574219 C 65.660156 31.226562 65.660156 31.226562 65.632812 30.917969 C 65.886719 30.917969 66.140625 30.917969 66.402344 30.917969 C 66.4375 31.027344 66.472656 31.132812 66.511719 31.246094 C 66.726562 31.246094 66.941406 31.246094 67.167969 31.246094 C 67.167969 31.136719 67.167969 31.027344 67.167969 30.917969 C 67.105469 30.890625 67.046875 30.867188 66.984375 30.839844 C 66.609375 30.667969 66.335938 30.53125 66.058594 30.21875 C 65.960938 29.929688 65.960938 29.929688 66.015625 29.585938 C 66.394531 28.859375 66.988281 28.851562 67.714844 29.054688 Z M 67.714844 29.054688 "/>
<path style=" stroke:none;fill-rule:nonzero;fill:rgb(1.960784%,7.058824%,19.607843%);fill-opacity:1;" d="M 75.917969 29.054688 C 76.199219 29.3125 76.199219 29.3125 76.355469 29.601562 C 76.355469 29.710938 76.355469 29.820312 76.355469 29.929688 C 76.136719 29.929688 75.921875 29.929688 75.699219 29.929688 C 75.664062 29.820312 75.625 29.714844 75.589844 29.601562 C 75.371094 29.636719 75.15625 29.671875 74.933594 29.710938 C 75.171875 29.976562 75.402344 30.121094 75.71875 30.28125 C 76.113281 30.519531 76.113281 30.519531 76.210938 30.804688 C 76.234375 31.203125 76.175781 31.410156 75.9375 31.738281 C 75.421875 31.984375 74.945312 32.003906 74.386719 31.902344 C 74.039062 31.65625 74.039062 31.65625 73.839844 31.355469 C 73.839844 31.210938 73.839844 31.066406 73.839844 30.917969 C 74.152344 30.894531 74.152344 30.894531 74.496094 30.917969 C 74.566406 31.027344 74.640625 31.132812 74.714844 31.246094 C 75.105469 31.273438 75.105469 31.273438 75.480469 31.246094 C 75.480469 31.136719 75.480469 31.027344 75.480469 30.917969 C 75.382812 30.890625 75.285156 30.863281 75.1875 30.835938 C 74.800781 30.6875 74.566406 30.554688 74.277344 30.257812 C 74.167969 29.914062 74.140625 29.703125 74.234375 29.355469 C 74.652344 28.824219 75.324219 28.878906 75.917969 29.054688 Z M 75.917969 29.054688 "/>
<path style=" stroke:none;fill-rule:nonzero;fill:rgb(1.960784%,7.058824%,19.607843%);fill-opacity:1;" d="M 53.820312 29.054688 C 54.101562 29.3125 54.101562 29.3125 54.257812 29.601562 C 54.257812 29.710938 54.257812 29.820312 54.257812 29.929688 C 54.042969 29.929688 53.824219 29.929688 53.601562 29.929688 C 53.566406 29.820312 53.53125 29.714844 53.492188 29.601562 C 53.3125 29.601562 53.132812 29.601562 52.945312 29.601562 C 52.945312 29.710938 52.945312 29.820312 52.945312 29.929688 C 53.015625 29.96875 53.085938 30.007812 53.15625 30.046875 C 53.246094 30.097656 53.335938 30.144531 53.429688 30.199219 C 53.519531 30.246094 53.609375 30.296875 53.703125 30.347656 C 53.929688 30.476562 53.929688 30.476562 54.039062 30.589844 C 54.113281 31.359375 54.113281 31.359375 53.839844 31.738281 C 53.324219 31.984375 52.851562 32.003906 52.289062 31.902344 C 51.941406 31.65625 51.941406 31.65625 51.742188 31.355469 C 51.742188 31.210938 51.742188 31.066406 51.742188 30.917969 C 52.054688 30.894531 52.054688 30.894531 52.398438 30.917969 C 52.46875 31.027344 52.542969 31.132812 52.617188 31.246094 C 52.890625 31.300781 52.890625 31.300781 53.164062 31.246094 C 53.234375 31.136719 53.308594 31.027344 53.382812 30.917969 C 53.289062 30.890625 53.191406 30.867188 53.097656 30.839844 C 52.636719 30.660156 52.40625 30.515625 52.070312 30.148438 C 52.0625 29.746094 52.089844 29.503906 52.328125 29.175781 C 52.792969 28.855469 53.300781 28.914062 53.820312 29.054688 Z M 53.820312 29.054688 "/>
<path style=" stroke:none;fill-rule:nonzero;fill:rgb(1.960784%,7.058824%,20%);fill-opacity:1;" d="M 49.445312 29.054688 C 49.660156 29.054688 49.878906 29.054688 50.101562 29.054688 C 50.027344 29.785156 49.957031 30.515625 49.882812 31.246094 C 50.0625 31.246094 50.242188 31.246094 50.429688 31.246094 C 50.773438 30.542969 50.925781 29.816406 51.085938 29.054688 C 51.339844 29.054688 51.589844 29.054688 51.851562 29.054688 C 51.789062 29.386719 51.726562 29.71875 51.660156 30.054688 C 51.632812 30.195312 51.632812 30.195312 51.609375 30.339844 C 51.492188 30.921875 51.351562 31.332031 50.976562 31.792969 C 50.542969 32.011719 50.023438 31.949219 49.554688 31.902344 C 49.261719 31.753906 49.261719 31.753906 49.117188 31.464844 C 48.984375 30.636719 49.214844 29.84375 49.445312 29.054688 Z M 49.445312 29.054688 "/>
<path style=" stroke:none;fill-rule:nonzero;fill:rgb(1.960784%,6.666667%,20%);fill-opacity:1;" d="M 81.058594 29.054688 C 81.339844 29.25 81.339844 29.25 81.496094 29.492188 C 81.496094 29.636719 81.496094 29.78125 81.496094 29.929688 C 81.1875 29.949219 81.1875 29.949219 80.839844 29.929688 C 80.664062 29.765625 80.664062 29.765625 80.511719 29.601562 C 80.367188 29.601562 80.222656 29.601562 80.074219 29.601562 C 80.144531 29.9375 80.144531 29.9375 80.375 30.042969 C 80.453125 30.074219 80.527344 30.109375 80.609375 30.144531 C 81.222656 30.4375 81.222656 30.4375 81.386719 30.808594 C 81.386719 31.214844 81.324219 31.40625 81.074219 31.726562 C 80.5625 31.992188 80.089844 31.988281 79.527344 31.902344 C 79.183594 31.679688 79.113281 31.554688 79.007812 31.164062 C 79 31.082031 78.988281 31 78.980469 30.917969 C 79.234375 30.917969 79.484375 30.917969 79.746094 30.917969 C 79.78125 31.027344 79.816406 31.132812 79.855469 31.246094 C 80.070312 31.246094 80.289062 31.246094 80.511719 31.246094 C 80.511719 31.136719 80.511719 31.027344 80.511719 30.917969 C 80.453125 30.890625 80.394531 30.867188 80.332031 30.839844 C 79.957031 30.667969 79.683594 30.53125 79.402344 30.21875 C 79.308594 29.929688 79.308594 29.929688 79.363281 29.585938 C 79.742188 28.859375 80.332031 28.851562 81.058594 29.054688 Z M 81.058594 29.054688 "/>
<path style=" stroke:none;fill-rule:nonzero;fill:rgb(1.960784%,7.058824%,20%);fill-opacity:1;" d="M 59.605469 28.988281 C 59.71875 29.007812 59.832031 29.03125 59.945312 29.054688 C 60.199219 29.988281 60.402344 30.929688 60.382812 31.902344 C 60.167969 31.902344 59.949219 31.902344 59.726562 31.902344 C 59.671875 31.632812 59.671875 31.632812 59.617188 31.355469 C 59.292969 31.320312 58.96875 31.28125 58.632812 31.246094 C 58.5625 31.464844 58.488281 31.679688 58.414062 31.902344 C 58.164062 31.902344 57.910156 31.902344 57.648438 31.902344 C 57.828125 31.25 58.152344 30.691406 58.488281 30.109375 C 58.546875 30.007812 58.601562 29.90625 58.65625 29.800781 C 59.082031 29.066406 59.082031 29.066406 59.605469 28.988281 Z M 59.398438 29.929688 C 59.253906 30.183594 59.109375 30.4375 58.960938 30.699219 C 59.140625 30.699219 59.324219 30.699219 59.507812 30.699219 C 59.507812 30.445312 59.507812 30.191406 59.507812 29.929688 C 59.472656 29.929688 59.4375 29.929688 59.398438 29.929688 Z M 59.398438 29.929688 "/>
<path style=" stroke:none;fill-rule:nonzero;fill:rgb(1.960784%,7.058824%,20%);fill-opacity:1;" d="M 55.570312 29.054688 C 55.859375 29.054688 56.148438 29.054688 56.445312 29.054688 C 56.5 29.382812 56.554688 29.714844 56.609375 30.046875 C 56.625 30.140625 56.640625 30.234375 56.65625 30.328125 C 56.742188 30.863281 56.792969 31.363281 56.773438 31.902344 C 56.558594 31.902344 56.339844 31.902344 56.117188 31.902344 C 56.117188 31.6875 56.117188 31.46875 56.117188 31.246094 C 55.78125 31.253906 55.460938 31.273438 55.132812 31.355469 C 55.019531 31.535156 54.910156 31.71875 54.804688 31.902344 C 54.402344 31.9375 54.402344 31.9375 54.039062 31.902344 C 54.1875 31.515625 54.359375 31.160156 54.566406 30.796875 C 54.625 30.695312 54.683594 30.59375 54.742188 30.488281 C 54.804688 30.382812 54.867188 30.277344 54.929688 30.171875 C 54.988281 30.0625 55.050781 29.957031 55.113281 29.84375 C 55.265625 29.582031 55.417969 29.316406 55.570312 29.054688 Z M 55.789062 29.929688 C 55.644531 30.183594 55.5 30.4375 55.351562 30.699219 C 55.570312 30.699219 55.785156 30.699219 56.007812 30.699219 C 55.972656 30.445312 55.9375 30.191406 55.898438 29.929688 C 55.863281 29.929688 55.828125 29.929688 55.789062 29.929688 Z M 55.789062 29.929688 "/>
<path style=" stroke:none;fill-rule:nonzero;fill:rgb(1.960784%,7.058824%,20%);fill-opacity:1;" d="M 89.371094 29.054688 C 89.625 29.054688 89.878906 29.054688 90.136719 29.054688 C 90.429688 29.972656 90.621094 30.933594 90.574219 31.902344 C 90.359375 31.902344 90.144531 31.902344 89.917969 31.902344 C 89.917969 31.6875 89.917969 31.46875 89.917969 31.246094 C 89.582031 31.253906 89.261719 31.273438 88.933594 31.355469 C 88.820312 31.535156 88.710938 31.71875 88.605469 31.902344 C 88.203125 31.9375 88.203125 31.9375 87.839844 31.902344 C 87.988281 31.515625 88.160156 31.160156 88.367188 30.796875 C 88.425781 30.695312 88.484375 30.59375 88.546875 30.488281 C 88.605469 30.382812 88.667969 30.277344 88.730469 30.171875 C 88.792969 30.0625 88.851562 29.957031 88.917969 29.84375 C 89.066406 29.582031 89.21875 29.316406 89.371094 29.054688 Z M 89.589844 29.929688 C 89.445312 30.183594 89.300781 30.4375 89.152344 30.699219 C 89.371094 30.699219 89.585938 30.699219 89.808594 30.699219 C 89.773438 30.445312 89.738281 30.191406 89.699219 29.929688 C 89.664062 29.929688 89.628906 29.929688 89.589844 29.929688 Z M 89.589844 29.929688 "/>
<path style=" stroke:none;fill-rule:nonzero;fill:rgb(1.960784%,7.058824%,20%);fill-opacity:1;" d="M 84.183594 29.046875 C 84.308594 29.046875 84.429688 29.050781 84.558594 29.054688 C 84.8125 29.988281 85.015625 30.929688 84.996094 31.902344 C 84.78125 31.902344 84.5625 31.902344 84.339844 31.902344 C 84.285156 31.632812 84.285156 31.632812 84.230469 31.355469 C 83.90625 31.320312 83.582031 31.28125 83.246094 31.246094 C 83.175781 31.464844 83.101562 31.679688 83.027344 31.902344 C 82.773438 31.902344 82.523438 31.902344 82.261719 31.902344 C 82.40625 31.527344 82.566406 31.179688 82.761719 30.824219 C 82.816406 30.730469 82.867188 30.632812 82.921875 30.535156 C 82.976562 30.433594 83.03125 30.335938 83.089844 30.230469 C 83.144531 30.128906 83.199219 30.03125 83.257812 29.925781 C 83.738281 29.054688 83.738281 29.054688 84.183594 29.046875 Z M 84.011719 29.820312 C 83.867188 30.109375 83.722656 30.398438 83.574219 30.699219 C 83.792969 30.699219 84.007812 30.699219 84.230469 30.699219 C 84.195312 30.410156 84.160156 30.117188 84.121094 29.820312 C 84.085938 29.820312 84.050781 29.820312 84.011719 29.820312 Z M 84.011719 29.820312 "/>
<path style=" stroke:none;fill-rule:nonzero;fill:rgb(1.960784%,7.058824%,20%);fill-opacity:1;" d="M 39.820312 29.054688 C 40.101562 29.042969 40.386719 29.039062 40.671875 29.03125 C 40.753906 29.03125 40.835938 29.027344 40.917969 29.023438 C 41.511719 29.015625 41.511719 29.015625 41.785156 29.191406 C 41.984375 29.53125 41.96875 29.882812 41.898438 30.257812 C 41.699219 30.589844 41.699219 30.589844 41.351562 30.808594 C 40.945312 30.851562 40.550781 30.839844 40.148438 30.808594 C 40.128906 30.949219 40.113281 31.085938 40.097656 31.230469 C 40.070312 31.492188 40.046875 31.667969 39.929688 31.902344 C 39.710938 31.902344 39.496094 31.902344 39.269531 31.902344 C 39.34375 30.929688 39.585938 30 39.820312 29.054688 Z M 40.367188 29.601562 C 40.328125 29.820312 40.292969 30.035156 40.257812 30.257812 C 40.78125 30.285156 40.78125 30.285156 41.242188 30.039062 C 41.203125 29.894531 41.167969 29.75 41.132812 29.601562 C 40.878906 29.601562 40.625 29.601562 40.367188 29.601562 Z M 40.367188 29.601562 "/>
<path style=" stroke:none;fill-rule:nonzero;fill:rgb(1.960784%,7.058824%,20%);fill-opacity:1;" d="M 42.226562 29.054688 C 42.984375 29.054688 43.742188 29.054688 44.523438 29.054688 C 44.484375 29.234375 44.449219 29.414062 44.414062 29.601562 C 44.160156 29.601562 43.90625 29.601562 43.648438 29.601562 C 43.503906 30.359375 43.359375 31.121094 43.210938 31.902344 C 42.957031 31.902344 42.703125 31.902344 42.445312 31.902344 C 42.589844 31.144531 42.734375 30.382812 42.882812 29.601562 C 42.628906 29.601562 42.375 29.601562 42.117188 29.601562 C 42.152344 29.421875 42.1875 29.238281 42.226562 29.054688 Z M 42.226562 29.054688 "/>
<path style=" stroke:none;fill-rule:nonzero;fill:rgb(1.960784%,6.666667%,19.607843%);fill-opacity:1;" d="M 94.1875 29.054688 C 94.4375 29.054688 94.691406 29.054688 94.953125 29.054688 C 94.863281 29.507812 94.773438 29.960938 94.683594 30.417969 C 94.660156 30.546875 94.632812 30.675781 94.609375 30.808594 C 94.585938 30.933594 94.558594 31.058594 94.535156 31.183594 C 94.511719 31.296875 94.488281 31.414062 94.46875 31.53125 C 94.40625 31.792969 94.40625 31.792969 94.296875 31.902344 C 94.078125 31.90625 93.859375 31.910156 93.640625 31.902344 C 93.710938 30.929688 93.953125 30 94.1875 29.054688 Z M 94.1875 29.054688 "/>
<path style=" stroke:none;fill-rule:nonzero;fill:rgb(1.960784%,7.058824%,20%);fill-opacity:1;" d="M 63.992188 29.054688 C 64.210938 29.054688 64.425781 29.054688 64.648438 29.054688 C 64.464844 31.179688 64.464844 31.179688 64.101562 31.902344 C 63.886719 31.902344 63.671875 31.902344 63.445312 31.902344 C 63.492188 30.921875 63.742188 30 63.992188 29.054688 Z M 63.992188 29.054688 "/>
<path style=" stroke:none;fill-rule:nonzero;fill:rgb(1.960784%,6.666667%,18.82353%);fill-opacity:1;" d="M 44.417969 31.238281 C 44.578125 31.242188 44.578125 31.242188 44.742188 31.246094 C 44.703125 31.464844 44.667969 31.679688 44.632812 31.902344 C 44.414062 31.902344 44.199219 31.902344 43.976562 31.902344 C 43.96875 31.722656 43.972656 31.539062 43.976562 31.355469 C 44.085938 31.246094 44.085938 31.246094 44.417969 31.238281 Z M 44.417969 31.238281 "/>
</g>
</svg>
