<?xml version="1.0" encoding="UTF-8"?>
<svg version="1.1" xmlns="http://www.w3.org/2000/svg" width="40" height="42">
<path d="M0 0 C4.29 0 8.58 0 13 0 C11.72520789 6.1778387 10.1079151 12.05567942 8 18 C8.99 18.33 9.98 18.66 11 19 C15.5078397 24.4602002 16.536776 29.78542721 16.37109375 36.71484375 C16 39 16 39 14 41 C8.76870152 41.82942445 3.17698085 42.40071877 -2 41 C-5.36253789 38.12500497 -7.21915199 35.02126969 -9 31 C-10.98 35.95 -10.98 35.95 -13 41 C-16.63 41 -20.26 41 -24 41 C-22.48215742 32.67173285 -20.29386255 24.62713238 -17.9375 16.5 C-17.56934084 15.21363339 -17.20150027 13.92717554 -16.83398438 12.640625 C-14.14074248 3.28148496 -14.14074248 3.28148496 -13 1 C-12.34 1 -11.68 1 -11 1 C-8.78563385 4.21255192 -6.946471 7.61483304 -5 11 C-3.35 7.37 -1.7 3.74 0 0 Z M-2 17 C-1 19 -1 19 -1 19 Z M1 22 C2 24 2 24 2 24 Z M6 22 C7 24 7 24 7 24 Z M5 25 C6 27 6 27 6 27 Z M4 27 C5 30 5 30 5 30 Z M3 31 C4 33 4 33 4 33 Z " fill="#0F1A39" transform="translate(24,1)"/>
<path d="M0 0 C4.29 0 8.58 0 13 0 C11.68764148 6.36430174 9.98780585 12.42121028 7.875 18.5625 C7.59785156 19.38041016 7.32070313 20.19832031 7.03515625 21.04101562 C6.36094863 23.02876568 5.68107796 25.01459349 5 27 C4.01 26.67 3.02 26.34 2 26 C2 24.68 2 23.36 2 22 C1.34 22 0.68 22 0 22 C-0.33 20.35 -0.66 18.7 -1 17 C-1.66 17 -2.32 17 -3 17 C-4.76158903 10.24724206 -2.84556537 6.29473552 0 0 Z " fill="#F91313" transform="translate(24,1)"/>
<path d="M0 0 C0.66 0 1.32 0 2 0 C1.35346673 6.95023264 -0.86027248 13.38177303 -3 20 C-3.99 19.67 -4.98 19.34 -6 19 C-6 18.01 -6 17.02 -6 16 C-6.66 16 -7.32 16 -8 16 C-9.40913826 10.36344696 -8.73956036 7.55846884 -5.91015625 2.50390625 C-5.45962891 1.75947266 -5.45962891 1.75947266 -5 1 C-4.34 1 -3.68 1 -3 1 C-3 3.64 -3 6.28 -3 9 C-2.01 6.03 -1.02 3.06 0 0 Z " fill="#FA1313" transform="translate(29,2)"/>
<path d="M0 0 C0.66 0 1.32 0 2 0 C1.35346673 6.95023264 -0.86027248 13.38177303 -3 20 C-3.66 20 -4.32 20 -5 20 C-3.4375 3.4375 -3.4375 3.4375 0 0 Z " fill="#FB0404" transform="translate(29,2)"/>
<path d="M0 0 C4.29 0 8.58 0 13 0 C12.67 0.99 12.34 1.98 12 3 C12 2.34 12 1.68 12 1 C9.69 1.33 7.38 1.66 5 2 C4.01 4.97 3.02 7.94 2 11 C1.04095144 7.16380575 1.08107884 5.67568464 2 2 C1.34 2 0.68 2 0 2 C-0.33 3.32 -0.66 4.64 -1 6 C-1.33 5.34 -1.66 4.68 -2 4 C-1.34 2.68 -0.68 1.36 0 0 Z " fill="#F63031" transform="translate(24,1)"/>
</svg>
